<svg width="21" height="20" viewBox="0 0 21 20" fill="none" xmlns="http://www.w3.org/2000/svg">
<path fill-rule="evenodd" clip-rule="evenodd" d="M0.499878 9.99988C0.499878 4.57888 5.07888 -0.00012207 10.4999 -0.00012207C15.9209 -0.00012207 20.4999 4.57888 20.4999 9.99988C20.4999 13.1899 18.9079 16.0779 16.4999 17.9239V17.9999H16.3979C14.7299 19.2449 12.6869 19.9999 10.4999 19.9999C8.31288 19.9999 6.26988 19.2449 4.60188 17.9999H4.49988V17.9239C2.09188 16.0779 0.499878 13.1889 0.499878 9.99988ZM7.62335 15.2359C7.09142 15.6638 6.72124 16.2603 6.57388 16.9269C7.74188 17.6039 9.08388 17.9999 10.4999 17.9999C11.9159 17.9999 13.2579 17.6039 14.4259 16.9269C14.2783 16.2604 13.9081 15.664 13.3762 15.2361C12.8443 14.8082 12.1825 14.5742 11.4999 14.5729H9.49988C8.81718 14.5741 8.15527 14.8079 7.62335 15.2359ZM14.2676 13.4116C15.0876 13.9573 15.7284 14.7327 16.1099 15.6409C17.5769 14.1819 18.4999 12.1759 18.4999 9.99988C18.4999 5.66288 14.8369 1.99988 10.4999 1.99988C6.16288 1.99988 2.49988 5.66288 2.49988 9.99988C2.49988 12.1759 3.42288 14.1819 4.88988 15.6409C5.27132 14.7327 5.91215 13.9573 6.73215 13.4116C7.55215 12.8659 8.51489 12.5741 9.49988 12.5729H11.4999C12.4849 12.5741 13.4476 12.8659 14.2676 13.4116ZM6.49988 7.99988C6.49988 5.71988 8.21988 3.99988 10.4999 3.99988C12.7799 3.99988 14.4999 5.71988 14.4999 7.99988C14.4999 10.2799 12.7799 11.9999 10.4999 11.9999C8.21988 11.9999 6.49988 10.2799 6.49988 7.99988ZM8.49988 7.99988C8.49988 9.17788 9.32188 9.99988 10.4999 9.99988C11.6779 9.99988 12.4999 9.17788 12.4999 7.99988C12.4999 6.82188 11.6779 5.99988 10.4999 5.99988C9.32188 5.99988 8.49988 6.82188 8.49988 7.99988Z" fill="#7D89A3"/>
</svg>
