<svg width="21" height="20" viewBox="0 0 21 20" fill="none" xmlns="http://www.w3.org/2000/svg">
<path d="M8.04535 18.1817C8.49722 18.1817 8.86354 17.8153 8.86354 17.3635C8.86354 16.9116 8.49722 16.5453 8.04535 16.5453C7.59349 16.5453 7.22717 16.9116 7.22717 17.3635C7.22717 17.8153 7.59349 18.1817 8.04535 18.1817Z" stroke="#7D89A3" stroke-width="2" stroke-linecap="round" stroke-linejoin="round"/>
<path d="M17.0454 18.1817C17.4972 18.1817 17.8635 17.8153 17.8635 17.3635C17.8635 16.9116 17.4972 16.5453 17.0454 16.5453C16.5935 16.5453 16.2272 16.9116 16.2272 17.3635C16.2272 17.8153 16.5935 18.1817 17.0454 18.1817Z" stroke="#7D89A3" stroke-width="2" stroke-linecap="round" stroke-linejoin="round"/>
<path d="M1.49988 0.999878H4.77261L6.96533 11.9553C7.04015 12.332 7.24508 12.6704 7.54423 12.9112C7.84339 13.152 8.21772 13.28 8.6017 13.2726H16.5544C16.9384 13.28 17.3127 13.152 17.6119 12.9112C17.911 12.6704 18.116 12.332 18.1908 11.9553L19.4999 5.09079H5.59079" stroke="#7D89A3" stroke-width="2" stroke-linecap="round" stroke-linejoin="round"/>
</svg>
