<svg width="22" height="19" viewBox="0 0 22 19" fill="none" xmlns="http://www.w3.org/2000/svg">
<g clip-path="url(#clip0_2_1397)">
<path d="M15.6002 -0.00012207C17.2291 -0.00012207 18.5974 0.549198 19.7051 1.64784C20.8128 2.74648 21.3666 4.08746 21.3666 5.6708C21.3666 6.44631 21.2038 7.2299 20.878 8.02156C20.5522 8.81323 20.1938 9.51604 19.8029 10.13C19.4119 10.7439 18.7522 11.5356 17.8237 12.505C16.8952 13.4744 16.1133 14.258 15.478 14.8557C14.8427 15.4535 13.8246 16.3664 12.4237 17.5943L10.9088 18.9514L9.39391 17.6427C8.0256 16.3825 7.01565 15.4535 6.36408 14.8557C5.7125 14.258 4.92246 13.4744 3.99396 12.505C3.06546 11.5356 2.40574 10.7439 2.0148 10.13C1.62385 9.51604 1.27363 8.81323 0.964127 8.02156C0.654628 7.2299 0.499878 6.44631 0.499878 5.6708C0.499878 4.08746 1.05372 2.74648 2.1614 1.64784C3.26908 0.549198 4.62111 -0.00012207 6.21747 -0.00012207C8.10704 -0.00012207 9.67083 0.726919 10.9088 2.181C12.1468 0.726919 13.7106 -0.00012207 15.6002 -0.00012207ZM11.0066 16.0917C12.6029 14.6699 13.7676 13.6117 14.5006 12.917C15.2337 12.2222 16.04 11.3902 16.9196 10.4208C17.7993 9.45141 18.4101 8.6032 18.7522 7.87616C19.0943 7.14911 19.2653 6.41399 19.2653 5.6708C19.2653 4.63678 18.9151 3.78049 18.2146 3.10192C17.5142 2.42335 16.6427 2.08406 15.6002 2.08406C14.8183 2.08406 14.0771 2.31025 13.3767 2.76263C12.6762 3.21501 12.1794 3.79665 11.8862 4.50753H9.93146C9.67083 3.79665 9.19029 3.21501 8.48985 2.76263C7.7894 2.31025 7.03194 2.08406 6.21747 2.08406C5.17495 2.08406 4.31161 2.42335 3.62745 3.10192C2.94329 3.78049 2.60122 4.63678 2.60122 5.6708C2.60122 6.41399 2.76411 7.14911 3.0899 7.87616C3.41569 8.6032 4.02654 9.45141 4.92246 10.4208C5.81838 11.3902 6.63285 12.2222 7.36588 12.917C8.0989 13.6117 9.24731 14.6699 10.8111 16.0917L10.9088 16.1887L11.0066 16.0917Z" fill="#7D89A3"/>
</g>
<defs>
<clipPath id="clip0_2_1397">
<rect width="21.1111" height="19" fill="white" transform="translate(0.499878 -0.00012207)"/>
</clipPath>
</defs>
</svg>
